# xmcd CD database file generated by Grip 3.2.0
# 
# Track frame offsets:
#       150
#       20574
#       45602
#       64553
#       85255
#       106009
#       127872
#       147462
#       172203
#       184436
#       206730
#       219456
#       231466
#       255400
#       277167
#       300193
#       322481
#       332145
# 
# Disc length: 4573 seconds
# 
# Revision: 1
# Processed by: cddbd v1.5.2PL0 Copyright (c) Steve Scherf et al.
# Submitted via: Grip 3.2.0
# 
DISCID=1411db12
DTITLE=Champion Jack Dupree - The Complete Blue Horizon Sessions [CD1]
DYEAR=2005
DGENRE=Blues
TTITLE0=See My Milk Cow
TTITLE1=Mr. Dupree Blues
TTITLE2=Yellow Pocahontas
TTITLE3=Gutbucket Blues - Ugly Woman
TTITLE4=Street Walking Woman
TTITLE5=Income Tax
TTITLE6=Roll On
TTITLE7=I've Been Mistreated
TTITLE8=A Racehorse Called Mae
TTITLE9=My Home's In Hell
TTITLE10=How Am I Doing It
TTITLE11=I Haven't Done No One No Harm
TTITLE12=Street Walking Woman (Alternate Version)
TTITLE13=Big Fat Woman
TTITLE14=Whiskey, Look What You Done To Me
TTITLE15=Going Down To The Blue Horizon
TTITLE16=Juke Box Jump
TTITLE17=Black Cat Shuffle
EXTD=
EXTT0=
EXTT1=
EXTT2=
EXTT3=
EXTT4=
EXTT5=
EXTT6=
EXTT7=
EXTT8=
EXTT9=
EXTT10=
EXTT11=
EXTT12=
EXTT13=
EXTT14=
EXTT15=
EXTT16=
EXTT17=
PLAYORDER=
